Coordinates
version=1
nRows=13
nColumns=63
inDegrees=yes

Units are S.I. units (second, meters, Newtons, ...)
If the header above contains a line with 'inDegrees', this indicates whether rotational values are in degrees (yes) or radians (no).

endheader
time	pelvis_tilt	pelvis_list	pelvis_rotation	pelvis_tx	pelvis_ty	pelvis_tz	hip_flexion_r	hip_adduction_r	hip_rotation_r	knee_angle_r	knee_angle_r_beta	ankle_angle_r	subtalar_angle_r	mtp_angle_r	hip_flexion_l	hip_adduction_l	hip_rotation_l	knee_angle_l	knee_angle_l_beta	ankle_angle_l	subtalar_angle_l	mtp_angle_l	L5_S1_Flex_Ext	L5_S1_Lat_Bending	L5_S1_axial_rotation	L4_L5_Flex_Ext	L4_L5_Lat_Bending	L4_L5_axial_rotation	L3_L4_Flex_Ext	L3_L4_Lat_Bending	L3_L4_axial_rotation	L2_L3_Flex_Ext	L2_L3_Lat_Bending	L2_L3_axial_rotation	L1_L2_Flex_Ext	L1_L2_Lat_Bending	L1_L2_axial_rotation	L1_T12_Flex_Ext	L1_T12_Lat_Bending	L1_T12_axial_rotation	Abs_r3	Abs_r2	Abs_r1	Abs_t1	Abs_t2	neck_flexion	neck_bending	neck_rotation	arm_flex_r	arm_add_r	arm_rot_r	elbow_flex_r	pro_sup_r	wrist_flex_r	wrist_dev_r	arm_flex_l	arm_add_l	arm_rot_l	elbow_flex_l	pro_sup_l	wrist_flex_l	wrist_dev_l
0.000000	5.089365	-13.868580	113.572189	0.187520	0.371192	0.688577	3.427188	1.220423	-14.562454	6.177781	0.107823	15.035516	-0.835399	0.000000	3.948345	-3.187062	-2.469777	4.799324	0.083764	16.794382	9.710681	0.000000	0.295790	0.365920	-1.643256	0.549311	0.486674	-1.745960	0.485953	0.889698	-1.745960	0.338058	0.889698	-1.437849	0.274670	0.746184	-1.335146	0.169014	0.566810	-1.232442	2.112795	4.139360	-9.139300	0.000000	0.000000	27.904138	4.876978	8.231713	20.593034	-18.752865	87.594049	60.920947	3.180424	4.221598	8.572974	4.863911	-11.450638	49.536836	59.391696	65.180171	6.204523	12.907006
0.016667	5.355531	-13.902848	114.023019	0.186533	0.370583	0.688202	3.316220	1.499136	-13.776083	5.781658	0.100909	14.662039	-2.382583	0.000000	4.068132	-3.358596	-2.131772	4.874625	0.085078	17.242458	9.738571	0.000000	0.305236	0.396206	-1.571292	0.566854	0.526954	-1.669498	0.501472	0.963336	-1.669498	0.348854	0.963336	-1.374881	0.283442	0.807944	-1.276675	0.174412	0.613724	-1.178469	2.180270	4.481965	-8.739057	0.000000	0.000000	27.951252	3.630867	6.845695	19.407189	-19.159579	85.051365	61.655309	2.879447	2.512614	10.829616	5.349166	-11.400783	50.680753	59.291130	66.353209	7.179349	14.395557
0.033333	5.581044	-13.950232	114.365794	0.185510	0.370068	0.687786	3.251805	1.707936	-13.106674	5.487242	0.095770	14.382099	-3.569631	0.000000	4.161905	-3.487688	-1.875303	4.912596	0.085741	17.604221	9.767388	0.000000	0.311989	0.422280	-1.512832	0.579395	0.561632	-1.607385	0.512567	1.026731	-1.607385	0.356572	1.026731	-1.323728	0.289713	0.861113	-1.229176	0.178270	0.654111	-1.134624	2.228506	4.776914	-8.413920	0.000000	0.000000	27.990955	2.579573	5.653177	18.405827	-19.485504	82.930674	62.238398	2.645640	0.987136	12.847109	5.755392	-11.372695	51.733841	59.184453	67.195894	7.935107	15.434537
0.050000	5.767453	-14.009058	114.606407	0.184463	0.369640	0.687334	3.229803	1.851844	-12.544488	5.286732	0.092271	14.186898	-4.429775	0.000000	4.231016	-3.576843	-1.695148	4.917773	0.085831	17.885186	9.795253	0.000000	0.316305	0.444301	-1.465854	0.587410	0.590921	-1.557470	0.519658	1.080274	-1.557470	0.361505	1.080274	-1.282622	0.293721	0.906019	-1.191006	0.180737	0.688223	-1.099391	2.259336	5.026025	-8.152641	0.000000	0.000000	28.022914	1.711908	4.648586	17.571124	-19.737635	81.193707	62.683598	2.474029	-0.363299	14.632408	6.088119	-11.363311	52.697542	59.072311	67.746602	8.492682	16.071378
0.066667	5.916305	-14.077654	114.750750	0.183405	0.369293	0.686847	3.246076	1.935880	-12.079789	5.172325	0.090274	14.067639	-4.996249	0.000000	4.276816	-3.628565	-1.586087	4.894693	0.085429	18.090871	9.820287	0.000000	0.318441	0.462432	-1.428335	0.591377	0.615034	-1.517606	0.523167	1.124356	-1.517606	0.363946	1.124356	-1.249793	0.295704	0.942990	-1.160522	0.181957	0.716307	-1.071251	2.274592	5.231118	-7.943969	0.000000	0.000000	28.046795	1.016681	3.826346	16.885256	-19.922971	79.802195	63.004293	2.359638	-1.547151	16.192471	6.352877	-11.369572	53.573300	58.955349	68.043711	8.872959	16.353512
0.083333	6.029149	-14.154345	114.804718	0.182348	0.369022	0.686331	3.296485	1.965064	-11.702842	5.136220	0.089644	14.015522	-5.302286	0.000000	4.300656	-3.645357	-1.542897	4.847893	0.084612	18.226792	9.840612	0.000000	0.318653	0.476831	-1.398252	0.591771	0.634186	-1.485643	0.523516	1.159368	-1.485643	0.364189	1.159368	-1.223470	0.295901	0.972354	-1.136080	0.182079	0.738612	-1.048689	2.276109	5.394012	-7.776657	0.000000	0.000000	28.062267	0.482702	3.180884	16.330398	-20.048506	78.717870	63.213868	2.297490	-2.572883	17.534255	6.555199	-11.388417	54.362556	58.834214	68.125598	9.096823	16.328368
0.100000	6.107534	-14.237458	114.774203	0.181306	0.368821	0.685788	3.376892	1.944417	-11.403910	5.170615	0.090244	14.021751	-5.381118	0.000000	4.303889	-3.629725	-1.560356	4.781908	0.083460	18.298466	9.854347	0.000000	0.317199	0.487661	-1.373583	0.589069	0.648590	-1.459432	0.521126	1.185700	-1.459432	0.362526	1.185700	-1.201885	0.294551	0.994439	-1.116036	0.181247	0.755388	-1.030187	2.265718	5.516524	-7.639456	0.000000	0.000000	28.068997	0.098782	2.706625	15.888728	-20.121238	77.902464	63.325707	2.282610	-3.448956	18.664716	6.700615	-11.416785	55.066755	58.709550	68.030640	9.185161	16.043378
0.116667	6.153009	-14.325321	114.665098	0.180291	0.368683	0.685222	3.483158	1.878960	-11.173255	5.267707	0.091939	14.077528	-5.265978	0.000000	4.287867	-3.584171	-1.633244	4.701277	0.082053	18.311409	9.859614	0.000000	0.314333	0.495083	-1.352305	0.583749	0.658460	-1.436824	0.516418	1.203744	-1.436824	0.359252	1.203744	-1.183267	0.291890	1.009572	-1.098748	0.179610	0.766883	-1.014229	2.245252	5.600473	-7.521116	0.000000	0.000000	28.066651	-0.146269	2.397995	15.542419	-20.148163	77.317708	63.353194	2.310023	-4.183833	19.590811	6.794655	-11.451615	55.687340	58.582003	67.797212	9.158856	15.545972
0.133333	6.167120	-14.416258	114.483298	0.179315	0.368602	0.684637	3.611145	1.773713	-11.001142	5.419696	0.094592	14.174054	-4.990101	0.000000	4.253940	-3.511200	-1.756338	4.610535	0.080469	18.271140	9.854535	0.000000	0.310314	0.499256	-1.332396	0.576285	0.664010	-1.415671	0.509815	1.213890	-1.415671	0.354658	1.213890	-1.165847	0.288158	1.018082	-1.082572	0.177314	0.773347	-0.999297	2.216544	5.647679	-7.410389	0.000000	0.000000	28.054896	-0.263640	2.249420	15.273648	-20.136278	76.925335	63.309715	2.374753	-4.785975	20.319497	6.842850	-11.489846	56.225753	58.452220	67.463693	9.038795	14.883582
0.150000	6.151417	-14.508598	114.234695	0.178392	0.368573	0.684036	3.756713	1.633696	-10.877835	5.618779	0.098066	14.302531	-4.586718	0.000000	4.203462	-3.413316	-1.924416	4.514220	0.078788	18.183174	9.837229	0.000000	0.305398	0.500341	-1.311834	0.567155	0.665454	-1.393823	0.501738	1.216530	-1.393823	0.349039	1.216530	-1.147854	0.283593	1.020296	-1.065865	0.174504	0.775028	-0.983875	2.181427	5.659959	-7.296025	0.000000	0.000000	28.033401	-0.264521	2.255324	15.064591	-20.092578	76.687075	63.208652	2.471824	-5.263845	20.857730	6.850732	-11.528418	56.683438	58.320846	67.068459	8.845862	14.103637
0.166667	6.107449	-14.600667	113.925182	0.177533	0.368590	0.683422	3.915726	1.463929	-10.793596	5.857154	0.102227	14.454162	-4.089062	0.000000	4.137782	-3.293023	-2.132257	4.416869	0.077089	18.053028	9.805819	0.000000	0.299841	0.498500	-1.288595	0.556835	0.663005	-1.369132	0.492609	1.212053	-1.369132	0.342688	1.212053	-1.127520	0.278432	1.016542	-1.046983	0.171329	0.772177	-0.966446	2.141734	5.639134	-7.166777	0.000000	0.000000	28.001832	-0.160102	2.410134	14.897423	-20.024061	76.564661	63.063391	2.596261	-5.625903	21.212467	6.823830	-11.564270	57.061837	58.188526	66.649886	8.600943	13.253571
0.183333	6.022360	-14.696099	113.540645	0.176837	0.368645	0.682712	4.081517	1.265486	-10.683562	6.124206	0.106888	14.573375	-3.578254	0.000000	4.064079	-3.146675	-2.468272	4.342320	0.075788	17.909464	9.868136	0.000000	0.295588	0.492236	-1.250842	0.548937	0.654674	-1.329020	0.485622	1.196823	-1.329020	0.337828	1.196823	-1.094487	0.274483	1.003768	-1.016309	0.168899	0.762474	-0.938132	2.111356	5.568274	-6.956810	0.000000	0.000000	27.955872	0.063126	2.800666	14.604110	-19.944998	76.276976	62.905852	2.758904	-5.853192	21.358274	6.784789	-11.613125	57.455504	58.048015	66.380990	8.257637	12.223639
0.200000	5.907428	-14.782612	113.104801	0.176257	0.368749	0.681989	4.248303	1.044537	-10.643374	6.424999	0.112137	14.705972	-3.004091	0.000000	3.971339	-2.984130	-2.869098	4.285423	0.074795	17.734078	9.963093	0.000000	0.290696	0.483491	-1.208632	0.539851	0.643043	-1.284171	0.477584	1.175559	-1.284171	0.332236	1.175559	-1.057553	0.269940	0.985934	-0.982013	0.166103	0.748927	-0.906474	2.076409	5.469343	-6.722048	0.000000	0.000000	27.894426	0.470594	3.526004	14.412204	-19.846413	76.234699	62.704762	2.918997	-5.880168	21.196662	6.706677	-11.648521	57.716728	57.921859	65.993301	7.934955	11.446687
